<svg width="80" height="69" viewBox="0 0 80 69" fill="none" xmlns="http://www.w3.org/2000/svg">
<path fill-rule="evenodd" clip-rule="evenodd" d="M2.5 0C1.11929 0 0 1.11929 0 2.5C0 3.88071 1.11929 5 2.5 5H11.9577L14.5717 15.2848C14.6269 15.5023 14.7092 15.7059 14.8139 15.8927L22.5282 45.2073C21.8747 46.3201 21.5 47.6163 21.5 49C21.5 53.1421 24.8579 56.5 29 56.5H30.6694C29.0437 57.7818 28 59.769 28 62C28 65.866 31.134 69 35 69C38.866 69 42 65.866 42 62C42 59.769 40.9563 57.7818 39.3306 56.5H54.6694C53.0437 57.7818 52 59.769 52 62C52 65.866 55.134 69 59 69C62.866 69 66 65.866 66 62C66 59.769 64.9563 57.7818 63.3306 56.5H71C72.3807 56.5 73.5 55.3807 73.5 54C73.5 52.6193 72.3807 51.5 71 51.5H29C27.6193 51.5 26.5 50.3807 26.5 49C26.5 48.1822 26.8927 47.4561 27.4998 47H68.4582C69.3668 47 70.1612 46.3876 70.3924 45.509L79.3397 11.509C79.6735 10.2408 78.7169 9 77.4056 9H18.1333L16.4617 2.42297C16.313 1.83755 15.9689 1.35339 15.5168 1.0224C15.0618 0.402454 14.3279 0 13.5 0H2.5Z" fill="#38ABBE"/>
<rect x="45" y="20" width="3" height="14" rx="1.5" fill="#242231"/>
<rect x="57.8628" y="19.8506" width="3" height="14" rx="1.5" transform="rotate(15 57.8628 19.8506)" fill="#242231"/>
<rect x="32.1021" y="20.4771" width="3" height="14" rx="1.5" transform="rotate(-15 32.1021 20.4771)" fill="#242231"/>
</svg>
