<svg width="20" height="18" viewBox="0 0 20 18" fill="none" xmlns="http://www.w3.org/2000/svg">
<path d="M0 4C0 1.79086 1.79086 0 4 0H16C18.2091 0 20 1.79086 20 4V10C20 12.2091 18.2091 14 16 14H8.67539C8.56185 14 8.4517 14.0386 8.36304 14.1096L4.31235 17.3501C3.98497 17.612 3.5 17.3789 3.5 16.9597V14.3889C3.5 14.1741 3.32589 14 3.11111 14C1.39289 14 0 12.6071 0 10.8889V4Z" fill="#808191"/>
<circle cx="6" cy="7" r="1" fill="#252836"/>
<circle cx="10" cy="7" r="1" fill="#252836"/>
<circle cx="14" cy="7" r="1" fill="#252836"/>
</svg>
