<svg width="14" height="20" viewBox="0 0 14 20" fill="none" xmlns="http://www.w3.org/2000/svg">
<path fill-rule="evenodd" clip-rule="evenodd" d="M7.59081 19.7681C9.27844 18.2414 14 13.4291 14 7.37342C14 3.68671 11.8125 0 7 0C2.1875 0 0 3.68671 0 7.37342C0 13.4291 4.72156 18.2414 6.40919 19.7681C6.75104 20.0773 7.24896 20.0773 7.59081 19.7681ZM7 10.1385C8.65685 10.1385 10 8.77671 10 7.09692C10 5.41712 8.65685 4.05538 7 4.05538C5.34315 4.05538 4 5.41712 4 7.09692C4 8.77671 5.34315 10.1385 7 10.1385Z" fill="#38ABBE"/>
</svg>
