<?xml version="1.0" encoding="UTF-8"?>
<!DOCTYPE svg PUBLIC "-//W3C//DTD SVG 1.1//EN" "http://www.w3.org/Graphics/SVG/1.1/DTD/svg11.dtd">
<!-- Creator: CorelDRAW X7 -->
<svg xmlns="http://www.w3.org/2000/svg" xml:space="preserve" width="210mm" height="297mm" version="1.1" style="shape-rendering:geometricPrecision; text-rendering:geometricPrecision; image-rendering:optimizeQuality; fill-rule:evenodd; clip-rule:evenodd"
viewBox="0 0 21000 29700"
 xmlns:xlink="http://www.w3.org/1999/xlink">
 <defs>
  <style type="text/css">
   <![CDATA[
    .str0 {stroke:#336666;stroke-width:400;stroke-linecap:round}
    .fil0 {fill:none}
    .fil2 {fill:#336666}
    .fil1 {fill:#336666}
   ]]>
  </style>
 </defs>
 <g id="Layer_x0020_1">
  <metadata id="CorelCorpID_0Corel-Layer"/>
  <path class="fil0 str0" d="M311 35122c606,-953 1672,-1584 2885,-1584 1888,0 3419,1530 3419,3419 0,1888 -1531,3418 -3419,3418 -1188,0 -2234,-605 -2847,-1524"/>
  <path class="fil0 str0" d="M1439 35585c408,-522 1043,-857 1757,-857 1230,0 2228,998 2228,2229 0,1230 -998,2228 -2228,2228 -772,0 -1453,-393 -1853,-989"/>
  <g id="_2071117723328">
   <path class="fil1" d="M-1159 36975l188 -167c51,47 461,461 478,529 24,98 -53,134 -125,152 -69,16 -213,-169 -278,-236 -92,-95 -178,-181 -263,-278zm1521 -1581l43 -10c43,0 89,30 161,90l806 648c41,21 40,22 88,32 65,15 138,16 219,-4 278,-68 545,-87 639,-336 68,-177 -58,-343 101,-382l533 -130c98,-23 135,57 166,137l583 1459c111,277 169,441 0,720 -69,114 -195,239 -372,282l-1321 322c-62,15 -126,-24 -142,-87 -44,-183 127,-178 423,-251 215,-52 967,-206 1096,-306 116,-90 173,-223 145,-399 -77,85 -170,176 -325,214l-3936 957c-332,81 -699,83 -983,69l-839 -150c67,275 38,272 258,322 128,30 273,56 403,67 1064,89 1698,-188 2696,-413 208,-47 224,215 87,248l-1498 365c-575,140 -1328,109 -1873,-33 -97,-25 -239,-132 -268,-253l-63 -259c-25,-131 -28,-259 36,-396 47,-101 106,-183 200,-257 69,-56 942,-537 1069,-658 41,-40 19,-55 54,-108 21,-31 24,-28 53,-54 236,-211 380,-455 534,-313l191 -154c-44,-88 -122,-113 58,-279l327 -310c80,-55 146,-11 195,44 46,-23 90,-72 125,-108 181,-188 263,-294 331,-326zm-756 857c46,-41 140,-143 188,-167 23,46 266,289 320,345 76,77 306,294 328,385 28,114 -120,187 -208,111l-317 -333c-124,-138 -187,-181 -311,-341zm496 -228c111,-99 223,-231 325,-322l554 459c171,141 383,336 671,265l508 -123c147,-36 270,-158 333,-252 2,-2 4,-5 5,-7l43 -72c43,-80 82,-222 67,-316l279 -68 177 439c58,147 117,295 180,450l129 323c73,175 -129,315 -318,361l-3632 884c-484,117 -1049,154 -1496,59l-437 -100c41,-112 137,-160 255,-224 266,-143 536,-307 784,-475 40,-27 106,-79 152,-102 56,51 111,111 166,171 174,186 358,441 613,379 272,-66 377,-348 292,-532 -67,-145 -205,-252 -321,-380 -39,-43 -85,-74 -104,-131l191 -154 387 412c164,177 259,305 525,240 218,-53 442,-371 144,-681l-316 -334c-58,-60 -103,-109 -156,-169z"/>
   <path class="fil1" d="M1289 38249c46,190 300,128 254,-62 -38,-153 -292,-92 -254,62z"/>
  </g>
  <path class="fil2" d="M-924 36703c65,46 207,125 305,212 99,86 154,180 195,264 42,85 71,161 82,231 10,70 1,134 -43,179 -44,46 -124,73 -206,80 -83,8 -167,-6 -254,-80 -86,-75 -173,-212 -238,-306 -65,-95 -107,-149 -138,-190 -30,-42 -48,-72 -42,-119 6,-48 37,-112 71,-160 33,-48 70,-79 108,-107 39,-27 79,-51 93,-57 14,-5 2,7 67,53z"/>
  <path class="fil2" d="M-498 36279c24,62 84,159 164,259 80,100 179,202 271,296 91,94 175,179 262,225 88,45 179,50 242,30 63,-20 97,-65 113,-121 16,-55 13,-121 -17,-194 -29,-72 -85,-152 -143,-225 -58,-72 -118,-138 -186,-204 -67,-66 -141,-133 -195,-186 -53,-53 -86,-91 -125,-123 -40,-32 -87,-57 -152,-36 -66,22 -149,91 -198,139 -48,49 -60,77 -36,140z"/>
  <path class="fil2" d="M3274 36044c-13,96 53,291 118,459 65,168 129,311 173,426 45,115 70,203 80,286 10,83 5,160 -32,247 -37,88 -105,186 -240,261 -135,75 -336,127 -402,165 -67,37 0,60 101,70 102,10 238,7 380,-29 142,-35 289,-102 419,-222 130,-121 243,-294 299,-456 55,-162 54,-313 30,-450 -24,-137 -72,-261 -132,-372 -61,-110 -135,-209 -218,-279 -82,-70 -174,-111 -239,-140 -66,-28 -106,-42 -170,-51 -65,-8 -155,-11 -167,85z"/>
 </g>
</svg>
