<svg width="18" height="18" viewBox="0 0 18 18" fill="none" xmlns="http://www.w3.org/2000/svg">
<path fill-rule="evenodd" clip-rule="evenodd" d="M0.666016 6.49984C0.666016 3.27818 3.27769 0.666504 6.49935 0.666504H13.166C13.6263 0.666504 13.9993 1.0396 13.9993 1.49984C13.9993 1.96007 13.6263 2.33317 13.166 2.33317H6.49935C4.19816 2.33317 2.33268 4.19865 2.33268 6.49984V13.1665C2.33268 13.6267 1.95959 13.9998 1.49935 13.9998C1.03911 13.9998 0.666016 13.6267 0.666016 13.1665V6.49984Z" fill="#38ABBE"/>
<path d="M3.99935 7.33317C3.99935 5.49222 5.49173 3.99984 7.33268 3.99984H13.9993C15.8403 3.99984 17.3327 5.49222 17.3327 7.33317V13.9998C17.3327 15.8408 15.8403 17.3332 13.9993 17.3332H7.33268C5.49173 17.3332 3.99935 15.8408 3.99935 13.9998V7.33317Z" fill="#38ABBE"/>
</svg>
