<?xml version="1.0" standalone="no"?>
<!DOCTYPE svg PUBLIC "-//W3C//DTD SVG 20010904//EN"
 "http://www.w3.org/TR/2001/REC-SVG-20010904/DTD/svg10.dtd">
<svg version="1.0" xmlns="http://www.w3.org/2000/svg"
 width="1140.000000pt" height="856.000000pt" viewBox="0 0 1140.000000 856.000000"
 preserveAspectRatio="xMidYMid meet">

<g transform="translate(0.000000,856.000000) scale(0.100000,-0.100000)"
fill="#336666" stroke="none">
<path d="M6860 8544 c-19 -2 -91 -9 -160 -15 -269 -23 -620 -96 -893 -185
-396 -129 -799 -329 -1128 -560 -421 -296 -804 -684 -1087 -1101 -96 -142
-116 -189 -108 -255 23 -206 277 -288 405 -131 17 21 65 88 107 148 558 807
1424 1377 2380 1565 288 57 379 64 744 65 351 0 455 -8 710 -56 1439 -272
2604 -1360 2974 -2779 85 -325 119 -602 119 -960 0 -275 -14 -447 -59 -690
-92 -501 -285 -980 -570 -1410 -367 -554 -877 -1005 -1474 -1305 -373 -187
-776 -309 -1220 -371 -159 -22 -620 -30 -803 -15 -1119 96 -2134 681 -2790
1610 -87 122 -126 156 -200 170 -144 27 -277 -81 -277 -225 0 -73 13 -99 113
-241 270 -379 650 -756 1036 -1027 582 -409 1262 -661 2016 -748 173 -20 716
-17 895 5 413 51 749 135 1100 273 1349 535 2337 1714 2620 3129 64 321 75
443 75 845 0 402 -11 524 -75 845 -238 1190 -981 2228 -2035 2844 -559 327
-1178 519 -1839 571 -117 9 -491 11 -576 4z"/>
<path d="M6965 7139 c-480 -23 -973 -181 -1385 -444 -216 -138 -484 -373 -647
-568 -94 -113 -114 -152 -114 -228 -1 -134 97 -229 233 -229 77 1 125 27 194
106 260 303 511 503 819 654 292 143 543 212 880 241 441 38 946 -72 1340
-293 655 -368 1094 -1001 1212 -1748 25 -162 25 -538 0 -700 -155 -983 -869
-1758 -1827 -1984 -695 -164 -1418 -11 -1995 423 -184 139 -407 372 -534 560
-58 85 -113 116 -206 116 -59 0 -78 -5 -117 -28 -87 -51 -133 -157 -109 -252
24 -97 212 -336 427 -545 501 -487 1136 -762 1840 -799 814 -43 1593 256 2170
833 462 462 741 1037 825 1701 7 55 13 201 13 325 0 237 -10 343 -50 552 -148
768 -620 1455 -1287 1874 -501 315 -1071 462 -1682 433z"/>
<path d="M6845 6233 c-516 -124 -679 -167 -703 -188 l-27 -23 -2 -163 c-1 -89
-8 -178 -14 -198 -23 -73 -74 -153 -127 -202 -98 -90 -200 -130 -507 -200
-148 -33 -210 -43 -280 -43 -164 0 -138 -16 -705 440 -278 223 -525 420 -549
436 -55 38 -115 47 -164 23 -21 -10 -127 -111 -253 -241 -119 -124 -230 -234
-246 -246 l-30 -20 -31 30 c-18 16 -42 35 -54 41 -29 15 -92 13 -121 -2 -46
-26 -492 -458 -518 -503 -31 -53 -29 -91 10 -153 14 -22 26 -44 26 -49 0 -16
-220 -184 -233 -178 -6 4 -23 13 -37 21 -43 25 -109 19 -169 -16 -77 -44 -459
-419 -488 -478 -13 -25 -23 -51 -23 -57 0 -44 -287 -227 -1034 -660 -209 -121
-250 -149 -321 -219 -95 -92 -162 -199 -202 -320 -23 -69 -26 -97 -27 -205 0
-116 4 -139 48 -320 28 -112 59 -216 74 -244 34 -62 134 -154 207 -190 68 -33
255 -77 470 -111 561 -87 1154 -85 1640 6 179 33 1957 468 1983 485 86 56 81
211 -9 256 -19 10 -52 18 -74 18 -50 0 -287 -56 -863 -204 -917 -236 -1251
-292 -1797 -303 -412 -8 -680 14 -1001 81 -215 46 -257 65 -290 128 -17 32
-76 260 -69 266 2 2 234 -38 517 -88 l513 -92 320 5 c326 5 466 17 670 57 55
11 1164 278 2465 595 2684 652 2463 590 2616 737 l83 79 7 -48 c11 -70 -10
-193 -46 -267 -44 -93 -135 -175 -237 -214 -204 -79 -534 -164 -1313 -338
-241 -54 -297 -72 -342 -114 -35 -34 -38 -42 -38 -89 0 -63 20 -114 53 -136
63 -41 50 -43 725 122 l637 155 138 4 c300 7 533 82 739 237 195 146 369 402
444 652 36 120 45 343 19 480 -65 353 -281 701 -523 845 -163 96 -341 155
-451 148 l-55 -3 -141 353 c-82 204 -152 363 -166 378 -13 15 -38 33 -56 40
-34 15 -35 15 -68 7z m211 -1071 c322 -801 317 -786 273 -875 -43 -85 -146
-169 -269 -217 -44 -17 -3812 -940 -4410 -1080 -553 -129 -1143 -164 -1595
-94 -86 13 -665 141 -672 148 -1 1 7 20 18 42 37 73 116 133 335 253 275 151
547 316 777 470 103 69 208 139 233 155 l46 30 91 -95 c51 -52 161 -168 246
-258 211 -223 315 -292 460 -307 112 -12 265 49 358 141 101 102 158 271 133
398 -25 130 -71 195 -311 444 -185 192 -231 249 -212 262 5 3 55 43 111 89 55
45 105 82 110 82 5 0 136 -136 291 -302 307 -329 386 -404 471 -446 51 -25 64
-27 175 -27 100 1 129 5 177 24 82 32 146 79 201 146 122 152 129 360 18 532
-22 34 -160 189 -307 345 -147 156 -283 300 -303 321 l-35 37 189 190 c104
105 193 190 197 190 4 0 182 -145 395 -322 468 -388 491 -406 618 -468 121
-59 236 -86 332 -76 71 7 691 156 763 182 161 60 340 246 415 431 29 72 55
196 55 263 0 27 1 50 3 50 1 1 72 18 157 39 85 22 159 38 163 37 5 -1 141
-331 303 -734z"/>
</g>
</svg>
